<svg xmlns="http://www.w3.org/2000/svg" width="48" height="48"><g transform="translate(-8 -1008.495)"><circle cx="32.001" cy="1032.495" r="24" fill="#1d67b1"/><path style="line-height:normal;text-indent:0;text-align:start;text-decoration-line:none;text-decoration-style:solid;text-decoration-color:#000;text-transform:none;block-progression:tb;isolation:auto;mix-blend-mode:normal" fill="#154082" d="M9.5 15.775c-.286 0-.5.215-.5.5v16.688l15.037 15.035A24 24 0 0 0 46.61 31.963l-7.898-7.899c-.007-.006-.017-.009-.023-.015l-1.979-1.979h-.002a.98.98 0 0 0-.314-.21h-.002c-.12-.05-.251-.077-.391-.077H15.723l-5.866-5.865a.5.5 0 0 0-.357-.143z" color="#000" font-family="sans-serif" font-weight="400" transform="translate(8 1008.495)"/><path style="line-height:normal;text-indent:0;text-align:start;text-decoration-line:none;text-decoration-style:solid;text-decoration-color:#000;text-transform:none;block-progression:tb;isolation:auto;mix-blend-mode:normal" fill="#fff" d="M17.5 1024.27c-.285 0-.5.214-.5.5v16.687h1v-2.187h28v2.225h1v-4.225H18v-5.42a.478.478 0 0 1 0-.16v-6.92c0-.286-.213-.5-.5-.5zm2 5.008c-.285 0-.5.214-.5.5v1.492h3v-1.412a.508.508 0 0 1-.005-.113.485.485 0 0 0-.494-.467h-2zm3.5 1v.992H45a.986.986 0 0 0-.998-.992H23zm-4 1.992v4h28v-3c0-.563-.436-1-1-1H22.617a.499.499 0 0 1-.23 0H19z" color="#000" font-family="sans-serif" font-weight="400" overflow="visible"/></g></svg>